<?xml version="1.0" encoding="UTF-8" standalone="no"?>
<!DOCTYPE svg PUBLIC "-//W3C//DTD SVG 1.1//EN"
 "http://www.w3.org/Graphics/SVG/1.1/DTD/svg11.dtd">
<!-- Generated by graphviz version 12.2.1 (20241206.2353)
 -->
<!-- Title: G Pages: 1 -->
<svg width="212pt" height="260pt"
 viewBox="0.00 0.00 211.68 260.00" xmlns="http://www.w3.org/2000/svg" xmlns:xlink="http://www.w3.org/1999/xlink"><metadata id='graphviz-dot'><![CDATA[digraph G {
    A -> B;
    B -> C -> E;
    B -> click_this_link;
    // URLs can be embedded, clickable in right pane
    click_this_link [URL="http://example.com"];
}]]></metadata>
<g id="graph0" class="graph" transform="scale(1 1) rotate(0) translate(4 256)">
<title>G</title>
<polygon fill="white" stroke="none" points="-4,4 -4,-256 207.68,-256 207.68,4 -4,4"/>
<!-- A -->
<g id="node1" class="node">
<title>A</title>
<ellipse fill="none" stroke="black" cx="82" cy="-234" rx="27" ry="18"/>
<text text-anchor="middle" x="82" y="-228.95" font-family="Times,serif" font-size="14.00">A</text>
</g>
<!-- B -->
<g id="node2" class="node">
<title>B</title>
<ellipse fill="none" stroke="black" cx="82" cy="-162" rx="27" ry="18"/>
<text text-anchor="middle" x="82" y="-156.95" font-family="Times,serif" font-size="14.00">B</text>
</g>
<!-- A&#45;&gt;B -->
<g id="edge1" class="edge">
<title>A&#45;&gt;B</title>
<path fill="none" stroke="black" d="M82,-215.7C82,-208.41 82,-199.73 82,-191.54"/>
<polygon fill="black" stroke="black" points="85.5,-191.62 82,-181.62 78.5,-191.62 85.5,-191.62"/>
</g>
<!-- C -->
<g id="node3" class="node">
<title>C</title>
<ellipse fill="none" stroke="black" cx="27" cy="-90" rx="27" ry="18"/>
<text text-anchor="middle" x="27" y="-84.95" font-family="Times,serif" font-size="14.00">C</text>
</g>
<!-- B&#45;&gt;C -->
<g id="edge2" class="edge">
<title>B&#45;&gt;C</title>
<path fill="none" stroke="black" d="M69.79,-145.46C62.89,-136.67 54.09,-125.48 46.27,-115.53"/>
<polygon fill="black" stroke="black" points="49.04,-113.38 40.11,-107.68 43.53,-117.71 49.04,-113.38"/>
</g>
<!-- click_this_link -->
<g id="node5" class="node">
<title>click_this_link</title>
<g id="a_node5"><a xlink:href="http://example.com" xlink:title="click_this_link" target="_blank">
<ellipse fill="none" stroke="black" cx="138" cy="-90" rx="65.68" ry="18"/>
<text text-anchor="middle" x="138" y="-84.95" font-family="Times,serif" font-size="14.00">click_this_link</text>
</a>
</g>
</g>
<!-- B&#45;&gt;click_this_link -->
<g id="edge4" class="edge">
<title>B&#45;&gt;click_this_link</title>
<path fill="none" stroke="black" d="M94.15,-145.81C100.98,-137.28 109.68,-126.4 117.52,-116.6"/>
<polygon fill="black" stroke="black" points="120.24,-118.8 123.75,-108.81 114.77,-114.43 120.24,-118.8"/>
</g>
<!-- E -->
<g id="node4" class="node">
<title>E</title>
<ellipse fill="none" stroke="black" cx="27" cy="-18" rx="27" ry="18"/>
<text text-anchor="middle" x="27" y="-12.95" font-family="Times,serif" font-size="14.00">E</text>
</g>
<!-- C&#45;&gt;E -->
<g id="edge3" class="edge">
<title>C&#45;&gt;E</title>
<path fill="none" stroke="black" d="M27,-71.7C27,-64.41 27,-55.73 27,-47.54"/>
<polygon fill="black" stroke="black" points="30.5,-47.62 27,-37.62 23.5,-47.62 30.5,-47.62"/>
</g>
</g>
</svg>
